HIERARCHY
ROOT Hips
{
    OFFSET 0.000000 0.000000 0.000000
    CHANNELS 6 Xposition Yposition Zposition Zrotation Xrotation Yrotation
    JOINT Spine
    {
        OFFSET -0.000000 14.517291 0.000000
        CHANNELS 3 Zrotation Xrotation Yrotation
        JOINT Spine1
        {
            OFFSET -0.000000 37.558300 0.000000
            CHANNELS 3 Zrotation Xrotation Yrotation
            JOINT Neck
            {
                OFFSET -0.000000 37.404057 3.400369
                CHANNELS 3 Zrotation Xrotation Yrotation
                JOINT Head
                {
                    OFFSET -0.000000 24.785618 -3.540803
                    CHANNELS 3 Zrotation Xrotation Yrotation
                    End Site
                    {
                        OFFSET -0.000000 35.408028 0.000000
                    }
                }
            }
            JOINT LeftShoulder
            {
                OFFSET 6.992933 33.973492 -0.192664
                CHANNELS 3 Zrotation Xrotation Yrotation
                JOINT LeftArm
                {
                    OFFSET 21.527611 0.000000 0.000000
                    CHANNELS 3 Zrotation Xrotation Yrotation
                    JOINT LeftForeArm
                    {
                        OFFSET 56.353916 0.000000 0.000000
                        CHANNELS 3 Zrotation Xrotation Yrotation
                        JOINT LeftHand
                        {
                            OFFSET 47.774071 0.000000 0.000000
                            CHANNELS 3 Zrotation Xrotation Yrotation
                            End Site
                            {
                                OFFSET 26.556021 0.000000 0.000000
                            }
                        }
                    }
                }
            }
            JOINT RightShoulder
            {
                OFFSET -7.065357 33.973492 -0.192664
                CHANNELS 3 Zrotation Xrotation Yrotation
                JOINT RightArm
                {
                    OFFSET -21.527611 0.000000 0.000000
                    CHANNELS 3 Zrotation Xrotation Yrotation
                    JOINT RightForeArm
                    {
                        OFFSET -56.353916 0.000000 0.000000
                        CHANNELS 3 Zrotation Xrotation Yrotation
                        JOINT RightHand
                        {
                            OFFSET -47.774071 0.000000 0.000000
                            CHANNELS 3 Zrotation Xrotation Yrotation
                            End Site
                            {
                                OFFSET -26.556021 0.000000 0.000000
                            }
                        }
                    }
                }
            }
        }
    }
    JOINT LeftUpLeg
    {
        OFFSET 17.704014 0.000000 0.000000
        CHANNELS 3 Zrotation Xrotation Yrotation
        JOINT LeftLeg
        {
            OFFSET -0.000000 -81.181816 0.000000
            CHANNELS 3 Zrotation Xrotation Yrotation
            JOINT LeftFoot
            {
                OFFSET -0.000000 -62.821102 0.000000
                CHANNELS 3 Zrotation Xrotation Yrotation
                JOINT LeftToeBase
                {
                    OFFSET -0.000000 -11.507608 26.556021
                    CHANNELS 3 Zrotation Xrotation Yrotation
                    End Site
                    {
                        OFFSET -0.000000 0.000000 7.081605
                    }
                }
            }
        }
    }
    JOINT RightUpLeg
    {
        OFFSET -17.704014 0.000000 0.000000
        CHANNELS 3 Zrotation Xrotation Yrotation
        JOINT RightLeg
        {
            OFFSET -0.000000 -81.181816 0.000000
            CHANNELS 3 Zrotation Xrotation Yrotation
            JOINT RightFoot
            {
                OFFSET -0.000000 -62.821102 0.000000
                CHANNELS 3 Zrotation Xrotation Yrotation
                JOINT RightToeBase
                {
                    OFFSET -0.000000 -11.507608 26.556021
                    CHANNELS 3 Zrotation Xrotation Yrotation
                    End Site
                    {
                        OFFSET -0.000000 0.000000 7.081605
                    }
                }
            }
        }
    }
}
MOTION
Frames:    13
Frame Time:    0.008333
27.846741    145.063248    49.599129    5.031144    2.770061    -62.189869    0.641044    -0.199931    -1.102904    -2.373444    0.422138    -0.361948    23.874279    7.872877    21.160667    -18.469204    3.253001    18.143671    5.571511    11.337052    -16.841085    -30.360203    9.221937    -41.481350    14.448062    -32.938000    -92.806290    -10.231263    -17.604036    -18.660425    -4.971068    0.185798    -7.265723    28.837116    -22.426159    44.033775    14.103074    -26.215740    109.476540    27.560593    -35.362389    37.598389    37.405926    -23.993832    31.509331    -32.875771    44.080929    7.366452    1.650777    -14.645590    44.343502    0.000000    0.000000    0.000000    -31.744522    -14.435562    -17.706493    4.071460    33.630211    -6.303903    19.963900    -10.175255    7.121701    0.000000    0.000000    0.000000    
27.850775    145.060135    49.600624    5.033219    2.764987    -62.194660    0.632456    -0.192335    -1.123026    -2.334224    0.380596    -0.369733    23.868143    7.880026    21.143959    -18.466314    3.304783    18.136856    5.748949    10.998767    -16.923868    -29.501474    8.817411    -40.885994    14.058713    -32.540634    -92.918472    -10.162269    -17.520477    -18.876410    -4.963009    0.197282    -7.243666    28.849110    -22.460661    43.978683    14.103354    -26.183987    109.488579    27.582512    -35.324257    37.629387    37.404224    -23.988409    31.513706    -32.887165    44.072971    7.384047    1.654655    -14.630970    44.333424    0.000000    0.000000    0.000000    -31.755215    -14.432572    -17.726431    4.067656    33.623020    -6.296979    19.979359    -10.173279    7.149406    0.000000    0.000000    0.000000    
27.859348    145.057755    49.608116    5.044101    2.755315    -62.209408    0.628635    -0.182046    -1.137773    -2.316695    0.327730    -0.375756    23.846903    7.873288    21.115541    -18.424690    3.360010    18.120562    5.929633    10.622380    -16.978176    -28.658066    8.446119    -40.309219    13.500236    -32.139294    -93.113419    -10.115170    -17.599417    -18.949017    -4.946003    0.205441    -7.213892    28.861601    -22.484852    43.916481    14.076402    -26.175886    109.500778    27.590822    -35.291370    37.604816    37.392624    -23.983398    31.542898    -32.876209    44.080296    7.380018    1.651660    -14.642650    44.317554    0.000000    0.000000    0.000000    -31.775532    -14.445537    -17.741028    4.058863    33.623444    -6.261562    20.004330    -10.161207    7.137052    0.000000    0.000000    0.000000    
27.857967    145.055084    49.617874    5.045105    2.744807    -62.220276    0.617227    -0.172199    -1.151236    -2.274833    0.281908    -0.381233    23.810062    7.871699    21.086077    -18.388807    3.404390    18.103216    6.088154    10.269146    -17.029978    -27.833548    8.026311    -39.718983    13.060671    -31.585997    -93.256966    -9.843163    -17.426817    -19.148497    -4.944008    0.242891    -7.200808    28.868938    -22.472742    43.872349    14.027907    -26.243481    109.528137    27.573874    -35.317841    37.559605    37.382206    -23.970995    31.553099    -32.880241    44.083397    7.398694    1.655069    -14.655641    44.313286    0.000000    0.000000    0.000000    -31.791893    -14.437567    -17.736231    4.077506    33.613216    -6.277905    19.968462    -10.167941    7.169205    0.000000    0.000000    0.000000    
27.860937    145.054459    49.631847    5.054539    2.732345    -62.239025    0.618252    -0.168196    -1.160166    -2.262221    0.231474    -0.385128    23.782364    7.871514    21.054844    -18.348341    3.445535    18.083517    6.282699    9.920801    -17.080774    -27.064682    7.618733    -39.143124    12.572785    -31.060896    -93.422958    -9.640282    -17.329586    -19.295040    -4.934506    0.275540    -7.180341    28.900162    -22.473246    43.820297    13.995167    -26.263252    109.550453    27.560385    -35.310352    37.546791    37.369270    -23.958027    31.572741    -32.877098    44.090134    7.386381    1.655586    -14.661142    44.299797    0.000000    0.000000    0.000000    -31.815794    -14.445708    -17.718151    4.091607    33.605881    -6.288900    19.971163    -10.158437    7.185854    0.000000    0.000000    0.000000    
27.859589    145.051041    49.641560    5.058657    2.720523    -62.257313    0.603651    -0.155470    -1.169827    -2.219270    0.180523    -0.389445    23.739052    7.896595    21.023172    -18.322664    3.444451    18.061842    6.482810    9.518270    -17.121954    -26.369381    7.182698    -38.560863    11.964153    -30.436949    -93.648460    -9.489380    -17.231304    -19.457899    -4.935493    0.304471    -7.163403    28.943180    -22.474298    43.783817    13.975171    -26.278378    109.580254    27.548889    -35.313328    37.543674    37.358860    -23.941910    31.582880    -32.879383    44.091824    7.375522    1.669507    -14.667455    44.311172    0.000000    0.000000    0.000000    -31.835625    -14.454515    -17.714146    4.099006    33.610508    -6.307110    19.965893    -10.141030    7.218586    0.000000    0.000000    0.000000    
27.858961    145.049454    49.655842    5.063214    2.709964    -62.272648    0.589664    -0.147870    -1.177402    -2.166656    0.132528    -0.392916    23.667383    7.894468    20.982059    -18.270853    3.464910    18.032749    6.641407    9.194880    -17.144968    -25.604616    6.768100    -38.053787    11.444347    -29.915865    -93.806686    -9.328972    -17.175406    -19.645096    -4.938552    0.327192    -7.146744    29.009745    -22.521605    43.746746    13.963508    -26.234419    109.596542    27.524933    -35.289082    37.463604    37.349659    -23.926868    31.585348    -32.892338    44.085823    7.370534    1.677712    -14.672412    44.325615    0.000000    0.000000    0.000000    -31.852753    -14.458502    -17.710772    4.103532    33.608204    -6.277532    19.958288    -10.152049    7.184629    0.000000    0.000000    0.000000    
27.858826    145.049469    49.669964    5.066246    2.706121    -62.293381    0.590192    -0.145102    -1.180586    -2.129687    0.085258    -0.394886    23.642540    7.921103    20.948532    -18.280890    3.475131    18.005924    6.826950    8.862548    -17.164360    -24.897701    6.353765    -37.553329    10.972001    -29.370075    -93.954048    -9.205765    -17.048412    -19.775307    -4.925106    0.346800    -7.123497    29.051399    -22.547703    43.695141    13.933450    -26.218725    109.597969    27.490294    -35.258625    37.420776    37.348351    -23.913795    31.592197    -32.906055    44.091427    7.374122    1.687101    -14.685026    44.335476    0.000000    0.000000    0.000000    -31.858311    -14.469304    -17.686245    4.114022    33.605919    -6.310555    19.953653    -10.136440    7.198590    0.000000    0.000000    0.000000    
27.855257    145.051102    49.689426    5.063953    2.695821    -62.308731    0.582676    -0.135946    -1.180367    -2.072704    0.042882    -0.395539    23.587395    7.922076    20.915218    -18.269266    3.502968    17.981237    7.020831    8.502963    -17.198563    -24.292469    5.885095    -37.039532    10.501819    -28.739674    -94.091431    -9.196346    -16.801880    -20.070641    -4.938740    0.357598    -7.117419    29.123728    -22.586760    43.657631    13.951556    -26.150137    109.606972    27.456985    -35.230465    37.423134    37.337349    -23.899233    31.577320    -32.923103    44.092999    7.382956    1.681196    -14.705267    44.356377    0.000000    0.000000    0.000000    -31.866850    -14.465458    -17.683130    4.106955    33.597370    -6.296504    19.964211    -10.126119    7.195837    0.000000    0.000000    0.000000    
27.850632    145.054245    49.704395    5.067660    2.692703    -62.327595    0.587215    -0.139923    -1.178108    -2.047020    0.011789    -0.395341    23.565844    7.928692    20.886564    -18.273705    3.519800    17.956440    7.240749    8.197699    -17.225355    -23.663548    5.409808    -36.550152    10.154722    -28.149126    -94.194107    -9.100446    -16.502905    -20.278036    -4.912401    0.370582    -7.109963    29.156395    -22.610241    43.620434    13.980925    -26.121691    109.624771    27.421589    -35.256023    37.424183    37.331005    -23.890297    31.593979    -32.907402    44.104572    7.374046    1.672572    -14.716255    44.356998    0.000000    0.000000    0.000000    -31.866894    -14.470994    -17.668259    4.100042    33.583370    -6.294837    19.959377    -10.114373    7.195012    0.000000    0.000000    0.000000    
27.844261    145.057922    49.722603    5.060692    2.692416    -62.342258    0.592844    -0.137737    -1.178046    -1.994572    -0.016689    -0.395699    23.533792    7.931262    20.866604    -18.297087    3.554558    17.941652    7.437264    7.895202    -17.260567    -23.076635    4.893683    -36.055290    9.713924    -27.497908    -94.359932    -8.973958    -16.235050    -20.491161    -4.912941    0.365992    -7.104626    29.196465    -22.628065    43.590813    13.999881    -26.075249    109.642471    27.294676    -35.298096    37.341881    37.331257    -23.873758    31.565081    -32.938843    44.093254    7.423183    1.676263    -14.726731    44.357780    0.000000    0.000000    0.000000    -31.859322    -14.462098    -17.643717    4.108326    33.561573    -6.319437    19.951715    -10.093345    7.196508    0.000000    0.000000    0.000000    
27.836796    145.062714    49.744892    5.059746    2.686260    -62.354885    0.594340    -0.143448    -1.175245    -1.951124    -0.037765    -0.395201    23.486189    7.913561    20.846018    -18.279902    3.607867    17.930330    7.654077    7.559391    -17.294436    -22.536856    4.353404    -35.558701    9.227156    -26.758682    -94.532578    -8.775798    -15.939530    -20.686977    -4.905236    0.363550    -7.110152    29.223459    -22.626371    43.559101    13.972355    -26.080830    109.626343    27.239147    -35.294586    37.280918    37.321751    -23.863174    31.552036    -32.955021    44.095619    7.445682    1.686231    -14.727723    44.361954    0.000000    0.000000    0.000000    -31.856937    -14.454470    -17.658127    4.068417    33.544922    -6.295807    19.972866    -10.075668    7.217350    0.000000    0.000000    0.000000    
27.827040    145.066422    49.765461    5.045399    2.682283    -62.363274    0.606075    -0.134974    -1.174422    -1.922152    -0.070495    -0.395323    23.465101    7.935194    20.815447    -18.291897    3.624721    17.905979    7.890590    7.276714    -17.341433    -22.002975    3.706589    -35.066944    8.660964    -25.897530    -94.759636    -8.459559    -15.626098    -20.771109    -4.889998    0.373803    -7.104867    29.296375    -22.707911    43.535633    13.993838    -25.964161    109.588341    27.230387    -35.210789    37.256107    37.318848    -23.843723    31.511578    -32.984634    44.084541    7.478738    1.682765    -14.748237    44.376606    0.000000    0.000000    0.000000    -31.845943    -14.427067    -17.662512    4.048362    33.510391    -6.272936    19.972239    -10.066911    7.219425    0.000000    0.000000    0.000000    
